# xmcd CD database file
#
# Track frame offsets:
#	187
#	16862
#	34277
#	53592
#	67740
#	86625
#	103600
#	119700
#	135217
#	150912
#	167745
#
# Disc length: 2454 seconds
#
# Revision: 0
# Processed by: cddbd v1.5.1PL0 Copyright (c) Steve Scherf et al.
# Submitted via: CDex 1.51
#
DISCID=7d09940b
DTITLE=長山洋子 - ときめき…アイ・ラブ・ユー
DYEAR=1900
DGENRE=JPop
TTITLE0=密やかにときめいて…
TTITLE1=旅人
TTITLE2=モ・ナ・リ・座
TTITLE3=春は SA-RA SA-RA
TTITLE4=シャボン
TTITLE5=夢色ジェラシー
TTITLE6=ため息いっぱいセレナーデ
TTITLE7=白いコスモス
TTITLE8=悲しいほどひとりきり
TTITLE9=禁じられた恋にそむき
TTITLE10=ごめん
EXTD=
EXTT0=
EXTT1=
EXTT2=
EXTT3=
EXTT4=
EXTT5=
EXTT6=
EXTT7=
EXTT8=
EXTT9=
EXTT10=
PLAYORDER=
